<?xml version="1.0" standalone="no"?>
<!DOCTYPE svg PUBLIC "-//W3C//DTD SVG 20010904//EN"
 "http://www.w3.org/TR/2001/REC-SVG-20010904/DTD/svg10.dtd">
<svg version="1.0" xmlns="http://www.w3.org/2000/svg"
 width="67.000000pt" height="65.000000pt" viewBox="0 0 67.000000 65.000000"
 preserveAspectRatio="xMidYMid meet">

<g transform="translate(0.000000,65.000000) scale(0.100000,-0.100000)"
fill="#9ca3af" stroke="none">
<path d="M169 461 c-24 -24 -29 -38 -29 -76 0 -51 20 -99 45 -109 28 -10 80
-7 94 7 10 10 12 7 9 -13 -3 -24 -5 -25 -70 -22 -62 3 -68 2 -68 -15 0 -11 12
-30 26 -44 21 -20 36 -24 84 -24 48 0 63 4 84 24 14 14 26 31 26 40 0 10 15 1
41 -24 l40 -40 40 45 c55 62 72 98 72 148 0 78 -64 129 -141 111 -52 -11 -85
-50 -93 -106 l-6 -48 -2 47 c-1 39 4 53 29 82 25 28 28 35 14 40 -25 10 -74 7
-74 -4 0 -7 -6 -7 -19 0 -35 18 -71 11 -102 -19z m109 -89 c6 -44 -37 -65 -52
-26 -9 22 13 56 32 52 9 -2 18 -14 20 -26z m192 9 c13 -25 13 -27 -6 -46 -20
-20 -44 -4 -44 30 0 39 32 49 50 16z"/>
</g>
</svg>
