<?xml version="1.0" standalone="no"?>
<!DOCTYPE svg PUBLIC "-//W3C//DTD SVG 20010904//EN"
 "http://www.w3.org/TR/2001/REC-SVG-20010904/DTD/svg10.dtd">
<svg version="1.0" xmlns="http://www.w3.org/2000/svg"
 width="986.000000pt" height="1024.000000pt" viewBox="0 0 986.000000 1024.000000"
 preserveAspectRatio="xMidYMid meet">

<g transform="translate(0.000000,1024.000000) scale(0.100000,-0.100000)"
fill="#9ca3af" stroke="none">
<path d="M5015 10216 c-22 -13 -366 -192 -765 -399 -783 -405 -1135 -588
-1355 -702 -77 -40 -376 -195 -665 -345 -289 -150 -583 -303 -655 -340 -71
-37 -254 -132 -405 -210 -151 -78 -320 -166 -375 -195 -55 -29 -254 -132 -442
-230 -189 -97 -341 -181 -338 -185 3 -4 73 -46 157 -93 84 -46 389 -216 678
-377 289 -161 646 -360 793 -442 148 -82 272 -147 275 -143 4 3 35 90 68 193
l62 187 1 -622 c1 -343 4 -623 9 -623 4 1 32 33 62 72 81 106 358 387 490 497
519 434 1150 719 1811 815 895 131 1786 -62 2538 -551 275 -179 579 -444 779
-680 46 -55 62 -68 66 -55 6 22 23 248 31 417 13 263 -26 606 -91 808 -85 264
-176 378 -424 532 -586 361 -1225 560 -1979 616 -209 15 -722 6 -921 -16 -303
-33 -571 -80 -824 -144 -61 -16 -112 -27 -114 -26 -5 5 154 90 264 141 491
230 1028 326 1656 295 375 -18 820 -65 1016 -106 706 -149 1311 -535 1575
-1004 93 -165 141 -320 159 -510 6 -64 12 -117 13 -119 1 -1 108 46 236 106
756 353 948 442 953 442 3 0 6 -823 6 -1830 l0 -1830 85 0 85 0 0 1869 c0
1483 3 1870 13 1878 6 5 78 40 160 78 81 38 147 71 147 74 -1 3 -152 94 -338
200 -185 107 -641 371 -1012 587 -371 215 -945 548 -1275 739 -330 191 -694
403 -810 470 -669 389 -1353 785 -1357 785 -1 0 -21 -11 -43 -24z"/>
<path d="M4605 6785 c-669 -78 -1274 -337 -1785 -766 -1020 -856 -1435 -2235
-1059 -3514 57 -193 128 -371 224 -560 178 -352 369 -610 661 -895 265 -258
508 -430 839 -595 332 -165 630 -258 1035 -322 88 -14 228 -17 865 -23 471 -4
833 -12 953 -20 163 -12 218 -12 365 0 120 10 389 15 896 17 l725 4 -735 729
-734 729 -971 0 c-1114 1 -1167 4 -1429 77 -332 93 -667 305 -890 562 -484
556 -606 1318 -319 1991 223 521 688 924 1236 1071 365 97 728 87 1083 -31
402 -133 748 -400 985 -759 172 -263 278 -581 299 -900 10 -154 -3 -379 -26
-462 -4 -17 36 -18 740 -18 l744 0 6 83 c10 127 8 463 -3 578 -54 535 -221
1029 -498 1470 -544 869 -1447 1436 -2472 1553 -164 19 -574 20 -735 1z"/>
<path d="M9316 3293 c-10 -60 -35 -229 -57 -378 -22 -148 -60 -407 -85 -575
-25 -168 -48 -326 -51 -352 l-6 -48 315 0 315 0 -88 608 c-49 334 -96 662
-106 730 l-17 122 -102 0 -101 0 -17 -107z"/>
</g>
</svg>
