<?xml version="1.0" standalone="no"?>
<!DOCTYPE svg PUBLIC "-//W3C//DTD SVG 20010904//EN"
 "http://www.w3.org/TR/2001/REC-SVG-20010904/DTD/svg10.dtd">
<svg version="1.0" xmlns="http://www.w3.org/2000/svg"
 width="104.000000pt" height="102.000000pt" viewBox="0 0 104.000000 102.000000"
 preserveAspectRatio="xMidYMid meet">

<g transform="translate(0.000000,102.000000) scale(0.100000,-0.100000)"
fill="#9ca3af" stroke="none">
<path d="M391 984 c-174 -47 -318 -201 -357 -383 -22 -108 -28 -101 80 -101
l94 0 12 52 c22 106 77 180 172 230 62 33 203 33 269 0 111 -54 173 -157 173
-282 0 -54 -6 -88 -21 -121 -44 -97 -140 -172 -238 -186 l-45 -6 0 -93 0 -94
38 0 c90 0 211 53 295 130 293 268 177 754 -204 855 -68 19 -198 18 -268 -1z"/>
<path d="M330 285 l0 -95 -75 0 -75 0 0 60 0 60 -60 0 -60 0 0 -60 0 -60 60 0
60 0 0 -75 0 -75 75 0 75 0 0 75 0 75 95 0 95 0 0 95 0 95 -95 0 -95 0 0 -95z"/>
</g>
</svg>
