<?xml version="1.0" standalone="no"?>
<!DOCTYPE svg PUBLIC "-//W3C//DTD SVG 20010904//EN"
 "http://www.w3.org/TR/2001/REC-SVG-20010904/DTD/svg10.dtd">
<svg version="1.0" xmlns="http://www.w3.org/2000/svg"
 width="200.000000pt" height="200.000000pt" viewBox="0 0 200.000000 200.000000"
 preserveAspectRatio="xMidYMid meet">

<g transform="translate(0.000000,200.000000) scale(0.100000,-0.100000)"
fill="#9ca3af" stroke="none">
<path d="M285 1781 c-11 -5 -31 -21 -45 -36 l-25 -27 -3 -696 c-2 -488 0 -708
8 -735 7 -25 22 -45 43 -57 31 -19 56 -20 735 -20 772 0 745 -2 777 60 14 26
15 117 13 740 l-3 710 -33 32 -32 33 -708 2 c-389 1 -716 -2 -727 -6z m576
-216 c3 -2 -10 -77 -28 -165 l-33 -161 -101 -100 c-55 -54 -98 -91 -95 -81 19
66 58 268 63 324 6 66 5 70 -31 123 -20 30 -36 57 -36 60 0 6 255 7 261 0z
m350 -235 c62 -12 179 -64 179 -79 0 -6 -5 -11 -11 -11 -6 0 -50 -19 -98 -42
-76 -37 -93 -41 -146 -39 -154 7 -351 -90 -398 -196 -10 -21 -28 -82 -41 -135
l-23 -98 302 0 303 0 37 72 c31 59 39 85 42 143 6 100 -16 135 -123 202 -17
10 -10 15 56 45 117 54 123 54 159 11 97 -117 101 -288 11 -467 -67 -133 -62
-129 -169 -127 -53 1 -106 8 -126 17 -30 12 -40 12 -77 -1 -60 -20 -367 -21
-422 -1 -29 10 -47 11 -70 3 -45 -14 -116 -21 -116 -10 0 5 13 54 29 109 16
54 39 137 52 184 l22 85 126 126 c104 103 140 132 201 163 109 53 194 66 301
46z m-516 -742 c43 -50 31 -114 -27 -144 -65 -34 -138 11 -138 85 0 47 22 78
63 89 46 12 74 4 102 -30z m500 7 c34 -33 35 -96 1 -130 -33 -33 -66 -39 -110
-21 -60 25 -74 93 -30 145 22 26 33 31 70 31 34 0 51 -6 69 -25z"/>
</g>
</svg>
